<?xml version="1.0" encoding="UTF-8" standalone="no"?><!DOCTYPE svg PUBLIC "-//W3C//DTD SVG 1.1//EN" "http://www.w3.org/Graphics/SVG/1.1/DTD/svg11.dtd"><svg width="100%" height="100%" viewBox="0 0 512 512" version="1.1" xmlns="http://www.w3.org/2000/svg" xmlns:xlink="http://www.w3.org/1999/xlink" xml:space="preserve" xmlns:serif="http://www.serif.com/" style="fill-rule:evenodd;clip-rule:evenodd;stroke-linejoin:round;stroke-miterlimit:2;"><rect id="Artboard1" x="0" y="0" width="512" height="512" style="fill:none;"/><clipPath id="_clip1"><rect id="Artboard11" serif:id="Artboard1" x="0" y="0" width="512" height="512"/></clipPath><g clip-path="url(#_clip1)"><g id="Layer1"><path d="M61.356,90.744l-0,352.052c-0,6.903 5.596,12.5 12.5,12.5l246.497,-0l-0,44.507c-0,6.903 -5.597,12.5 -12.5,12.5l-295.255,-0c-6.903,-0 -12.5,-5.597 -12.5,-12.5l0,-396.559c0,-6.903 5.597,-12.5 12.5,-12.5l48.758,0Z"/><path d="M432.627,24.15c0,-6.904 -5.596,-12.5 -12.5,-12.5l-319.254,-0c-6.904,-0 -12.5,5.596 -12.5,12.5l-0,396.558c-0,6.904 5.596,12.5 12.5,12.5l319.254,0c6.904,0 12.5,-5.596 12.5,-12.5l0,-396.558Zm-193.627,165.181l0,-46c0,-13.798 11.202,-25 25,-25c13.798,0 25,11.202 25,25l0,46l46,0c13.798,0 25,11.202 25,25c0,13.798 -11.202,25 -25,25l-46,0l0,46c0,13.798 -11.202,25 -25,25c-13.798,0 -25,-11.202 -25,-25l0,-46l-46,0c-13.798,0 -25,-11.202 -25,-25c0,-13.798 11.202,-25 25,-25l46,0Z"/><path d="M418.937,497.988l79.051,-79.051c5.469,-5.469 14.809,-1.597 14.809,6.145l0.031,79.051c-0,4.793 -3.902,8.695 -8.695,8.695l-79.051,-0.031c-7.742,-0 -11.614,-9.34 -6.145,-14.809Z" style="fill-rule:nonzero;"/></g></g></svg>