<svg viewBox="0 0 25 25" xml:space="preserve"><path d="M9.543,14.041c-2.118,-3.025 -2.578,-3.79 -2.578,-5.506c0,-3.036 2.499,-5.535 5.535,-5.535c3.037,0 5.536,2.499 5.536,5.535c0,1.717 -0.461,2.481 -2.578,5.507l8.542,2.98l-11.5,5.173l-11.5,-5.173l8.543,-2.981Zm0.44,0.629l-6.991,2.439l9.508,4.277l9.508,-4.277l-6.991,-2.439c-0.548,0.782 -1.193,1.7 -1.948,2.795c-0.129,0.186 -0.342,0.298 -0.569,0.298c-0.226,0 -0.439,-0.112 -0.569,-0.298c-0.755,-1.095 -1.399,-2.013 -1.948,-2.795Zm2.517,-3.829c-1.265,0 -2.306,-1.041 -2.306,-2.306c0,-1.265 1.041,-2.306 2.306,-2.306c1.266,0 2.307,1.041 2.307,2.306c0,1.265 -1.041,2.306 -2.307,2.306Z"/></svg>