<svg viewBox="0 0 25 21" version="1.1" xml:space="preserve"><path d="M7.254,10.243l-1.284,-3.176c-0.146,-0.355 -0.15,-0.754 -0.012,-1.113c0.291,-0.759 1.148,-1.153 1.915,-0.879l2.394,0.919l-0.105,-4.392c-0.024,-0.826 0.63,-1.527 1.455,-1.558l1.523,-0.044c0.19,-0.004 0.379,0.029 0.556,0.097c0.556,0.213 0.928,0.747 0.934,1.342l0.104,4.295l2.443,-1.265c0.371,-0.191 0.806,-0.215 1.195,-0.066c0.75,0.288 1.13,1.142 0.842,1.892c-0.004,0.011 -0.008,0.022 -0.013,0.033l-1.503,3.915l6.764,0c0.276,0 0.5,0.224 0.5,0.5c0,0.276 -0.224,0.5 -0.5,0.5l-7.148,0l-0.767,1.998l7.915,0c0.276,0 0.5,0.224 0.5,0.5c0,0.276 -0.224,0.5 -0.5,0.5l-8.299,0l-0.767,1.998l9.066,0c0.276,0 0.5,0.224 0.5,0.5c0,0.276 -0.224,0.5 -0.5,0.5l-9.449,0l-1.059,2.757c-0.004,0.011 -0.007,0.021 -0.011,0.032c-0.288,0.75 -1.143,1.13 -1.893,0.842c-0.376,-0.144 -0.677,-0.438 -0.83,-0.81l-1.14,-2.821l-9.58,0c-0.276,0 -0.5,-0.224 -0.5,-0.5c0,-0.276 0.224,-0.5 0.5,-0.5l9.176,0l-0.807,-1.998l-8.369,0c-0.276,0 -0.5,-0.224 -0.5,-0.5c0,-0.276 0.224,-0.5 0.5,-0.5l7.965,0l-0.807,-1.998l-7.158,0c-0.276,0 -0.5,-0.224 -0.5,-0.5c0,-0.276 0.224,-0.5 0.5,-0.5l6.754,0Zm6.277,-2.471l-0.151,-6.303c0.004,-0.09 -0.05,-0.173 -0.134,-0.205c-0.023,-0.009 -0.047,-0.014 -0.071,-0.014l-1.523,0.043c-0.141,0.015 -0.246,0.138 -0.24,0.28l0.15,6.256l-4.137,-1.588c-0.125,-0.029 -0.254,0.04 -0.3,0.16c-0.025,0.064 -0.023,0.135 0.004,0.198l5.25,12.992c0.077,0.191 0.33,0.165 0.409,-0.042l5.247,-13.669c0.081,-0.211 -0.095,-0.399 -0.281,-0.303l-4.223,2.195Z"/></svg>