<svg viewBox="0 0 25 25" xml:space="preserve"><path d="M12.5,2.563c-6.352,-0.001 -11.5,4.182 -11.5,9.343c0,2.228 0.961,4.268 2.561,5.872c-0.562,2.264 -2.44,4.281 -2.462,4.303c-0.099,0.103 -0.126,0.256 -0.068,0.391c0.059,0.135 0.185,0.215 0.328,0.215c2.979,0 5.211,-1.428 6.316,-2.309c1.469,0.553 3.1,0.872 4.825,0.872c6.352,0 11.5,-4.182 11.5,-9.344c0,-5.161 -5.148,-9.344 -11.5,-9.344Zm0.681,7.793l-2.118,0c-0.209,0 -0.379,0.17 -0.379,0.379l0,0.903c0,0.209 0.17,0.378 0.379,0.378l0.378,0l0,2.733l-0.378,0c-0.209,0 -0.379,0.169 -0.379,0.378l0,0.904c0,0.209 0.17,0.378 0.379,0.378l2.875,0c0.208,0 0.378,-0.169 0.378,-0.378l0,-0.904c0,-0.209 -0.17,-0.378 -0.378,-0.378l-0.379,0l0,-4.014c0,-0.209 -0.169,-0.379 -0.378,-0.379Zm-0.681,-3.631c-0.752,0 -1.362,0.609 -1.362,1.362c0,0.752 0.61,1.361 1.362,1.361c0.752,0 1.362,-0.609 1.362,-1.361c0,-0.753 -0.61,-1.362 -1.362,-1.362Z"/></svg>