<svg viewBox="0 0 25 23" version="1.1" xml:space="preserve"><path id="mouse-pointer" d="M12.297,19.563l-1.454,-3.533l-1.623,1.831c-0.247,0.277 -0.6,0.435 -0.97,0.435c-0.714,0 -1.3,-0.587 -1.3,-1.3c0,-0.012 0,-0.023 0,-0.035l0,-13.003c0,-0.011 0,-0.023 0,-0.034c0,-0.713 0.586,-1.3 1.3,-1.3c0.359,0 0.702,0.149 0.948,0.411l8.49,9.1c0.234,0.248 0.364,0.577 0.364,0.918c0,0.723 -0.584,1.322 -1.307,1.34l-2.28,0l1.485,3.613c0.284,0.677 -0.036,1.467 -0.71,1.756l-1.249,0.52c-0.156,0.064 -0.323,0.097 -0.492,0.097c-0.529,0 -1.007,-0.324 -1.202,-0.816Zm-1.1,-5.6l2.131,5.179c0.025,0.076 0.096,0.127 0.176,0.127c0.022,0 0.043,-0.003 0.064,-0.011l1.249,-0.52c0.112,-0.057 0.162,-0.194 0.111,-0.309l-2.12,-5.142l3.936,0c0.113,-0.016 0.199,-0.114 0.199,-0.229c0,-0.06 -0.024,-0.119 -0.067,-0.162l-8.49,-9.1c-0.125,-0.134 -0.326,-0.032 -0.326,0.165l0,13.003c0,0.2 0.206,0.3 0.329,0.161l2.808,-3.162Z" style="fill-rule:nonzero;"/></svg>