<svg viewBox="0 0 512 512" xml:space="preserve"><path d="M35.499,158.255l210.86,95.654c6.156,2.797 13.117,2.797 19.272,0l210.861,-95.654c14.981,-6.798 14.981,-29.438 0,-36.236l-210.851,-95.663c-6.117,-2.796 -13.156,-2.796 -19.272,0l-210.87,95.654c-14.981,6.798 -14.981,29.447 0,36.245Zm441.002,79.912l-52.584,-23.834l-146.319,66.325c-6.843,3.105 -14.112,4.68 -21.598,4.68c-7.486,0 -14.746,-1.575 -21.598,-4.68l-146.31,-66.325l-52.593,23.834c-14.981,6.789 -14.981,29.419 0,36.209l210.86,95.581c6.156,2.788 13.117,2.788 19.272,0l210.87,-95.581c14.981,-6.79 14.981,-29.42 0,-36.209Zm0,115.686l-52.385,-23.743l-146.518,66.415c-6.843,3.105 -14.112,4.68 -21.598,4.68c-7.486,0 -14.746,-1.575 -21.598,-4.68l-146.509,-66.415l-52.394,23.743c-14.981,6.789 -14.981,29.42 0,36.209l210.86,95.582c6.156,2.788 13.117,2.788 19.272,0l210.87,-95.582c14.981,-6.789 14.981,-29.42 0,-36.209Z" style="fill-rule:nonzero;"/></svg>