<?xml version="1.0" encoding="UTF-8" standalone="no"?><!DOCTYPE svg PUBLIC "-//W3C//DTD SVG 1.1//EN" "http://www.w3.org/Graphics/SVG/1.1/DTD/svg11.dtd"><svg width="100%" height="100%" viewBox="0 0 21 21" version="1.1" xmlns="http://www.w3.org/2000/svg" xmlns:xlink="http://www.w3.org/1999/xlink" xml:space="preserve" xmlns:serif="http://www.serif.com/" style="fill-rule:evenodd;clip-rule:evenodd;stroke-linejoin:round;stroke-miterlimit:2;"><g id="Union_8"><path d="M20,20.5l-13,0c-0.275,0 -0.5,-0.224 -0.5,-0.5l0,-7l0,-0.5l-0.5,0l-5,0c-0.275,0 -0.5,-0.224 -0.5,-0.5l0,-11c0,-0.276 0.225,-0.5 0.5,-0.5l12,0c0.275,0 0.5,0.224 0.5,0.5l0,7.5l6.5,0c0.275,0 0.5,0.224 0.5,0.5l0,11c0,0.276 -0.225,0.5 -0.5,0.5Z" style="fill-opacity:0.4;fill-rule:nonzero;"/><path d="M20,20l0,-11l-6,0l-1,0l0,-1l0,-7l-12,0l0,11l6,0l0,8l13,0m0,1l-13,0c-0.552,0 -1,-0.448 -1,-1l0,-7l-5,0c-0.552,0 -1,-0.448 -1,-1l0,-11c0,-0.552 0.448,-1 1,-1l12,0c0.552,0 1,0.448 1,1l0,7l6,0c0.552,0 1,0.448 1,1l0,11c0,0.552 -0.448,1 -1,1Z" style="fill-rule:nonzero;"/></g></svg>