<svg viewBox="0 0 448 448"><path d="M379.551,190.612l-121.163,0l0,-121.163c0,-14.867 -12.058,-26.925 -26.925,-26.925l-14.926,0c-14.867,0 -26.925,12.058 -26.925,26.925l0,121.163l-121.163,0c-14.867,0 -26.925,12.058 -26.925,26.925l0,13.926c0,14.867 12.058,26.925 26.925,26.925l121.163,0l0,121.163c0,14.867 12.058,26.925 26.925,26.925l14.926,0c14.867,0 26.925,-12.058 26.925,-26.925l0,-121.163l121.163,0c14.867,0 26.925,-12.058 26.925,-26.925l0,-13.926c0,-14.867 -12.058,-26.925 -26.925,-26.925Z" style="fill-rule:nonzero;"/><path d="M373.064,436.161l63.097,-63.097c4.369,-4.369 11.839,-1.275 11.839,4.904l0,63.097c0,3.83 -3.105,6.935 -6.935,6.935l-63.097,0c-6.179,0 -9.273,-7.47 -4.904,-11.839Z" style="fill-rule:nonzero;"/></svg>