<svg viewBox="0 0 23 23" xml:space="preserve" style="fill-rule:evenodd;clip-rule:evenodd;stroke-linejoin:round;stroke-miterlimit:2;"><path id="scalpel-path" d="M12.333,19.27l-2.775,0c0,0 -0.001,0 -0.001,0c-0.152,0 -0.277,0.125 -0.277,0.277l0,0.556c0,0 0,0.001 0,0.001c0,0.152 0.125,0.277 0.277,0.277c0,0 0.001,0 0.001,0l2.775,0c0,0 0.001,0 0.001,0c0.152,0 0.277,-0.125 0.277,-0.277c0,0 0,-0.001 0,-0.001l0,-0.555c0,0 0,-0.001 0,-0.001c0,-0.152 -0.125,-0.277 -0.277,-0.277c0,0 -0.001,0 -0.001,0Zm5,0l-2.78,0c0,0 -0.001,0 -0.001,0c-0.152,0 -0.277,0.125 -0.277,0.277l0,0.556c0,0 0,0.001 0,0.001c0,0.152 0.125,0.277 0.277,0.277c0,0 0.001,0 0.001,0l2.775,0c0,0 0.001,0 0.001,0c0.152,0 0.277,-0.125 0.277,-0.277c0,0 0,-0.001 0,-0.001l0,-0.555c0,0 0,-0.001 0,-0.001c0,-0.152 -0.125,-0.277 -0.277,-0.277c0,0 -0.001,0 -0.001,0l0.005,0Zm5,0l-2.785,0c0,0 -0.001,0 -0.001,0c-0.152,0 -0.277,0.125 -0.277,0.277l0,0.556c0,0 0,0.001 0,0.001c0,0.152 0.125,0.277 0.277,0.277c0,0 0.001,0 0.001,0l2.775,0c0,0 0.001,0 0.001,0c0.152,0 0.277,-0.125 0.277,-0.277c0,0 0,-0.001 0,-0.001l0,-0.555c0,0 0,-0.001 0,-0.001c0,-0.152 -0.125,-0.277 -0.277,-0.277c0,0 -0.001,0 -0.001,0l0.01,0Zm-4.192,-16.193c-0.423,-0.3 -0.929,-0.46 -1.448,-0.457c-0.829,0.006 -1.615,0.371 -2.155,1l-7.767,9.08c-0.179,0.214 -0.186,0.526 -0.017,0.748l-6.354,6.932l0.013,0c3.438,0.019 6.78,-1.14 9.468,-3.284l0.024,-0.019c1.008,-0.848 1.657,-2.049 1.812,-3.357l0.609,0c0.361,0 0.704,-0.159 0.939,-0.433l5.358,-6.261c0.417,-0.489 0.647,-1.111 0.647,-1.753c0,-0.871 -0.421,-1.691 -1.13,-2.197l0.001,0.001Zm-8.959,13.157c-1.747,1.405 -3.814,2.357 -6.017,2.773l4.846,-5.287l2.609,0c-0.159,0.984 -0.67,1.878 -1.438,2.514Zm8.6,-9.929l-5.36,6.261c-0.025,0.029 -0.062,0.045 -0.1,0.044l-4.012,0l7.071,-8.264c0.328,-0.385 0.806,-0.61 1.312,-0.617c0.286,-0.002 0.566,0.085 0.8,0.25c0.364,0.257 0.601,0.657 0.652,1.1c0.055,0.443 -0.079,0.888 -0.368,1.228l0.005,-0.002Z" style="fill-rule:nonzero;"/></svg>