<?xml version="1.0" encoding="UTF-8" standalone="no"?><!DOCTYPE svg PUBLIC "-//W3C//DTD SVG 1.1//EN" "http://www.w3.org/Graphics/SVG/1.1/DTD/svg11.dtd"><svg width="100%" height="100%" viewBox="0 0 21 22" version="1.1" xmlns="http://www.w3.org/2000/svg" xmlns:xlink="http://www.w3.org/1999/xlink" xml:space="preserve" xmlns:serif="http://www.serif.com/" style="fill-rule:evenodd;clip-rule:evenodd;"><g id="Group_1314"><g id="Subtraction_12"><path d="M6.501,12.501l-5.501,0c-0.275,0 -0.5,-0.224 -0.5,-0.5l0,-11.001c0,-0.276 0.225,-0.5 0.5,-0.5l11.999,0c0.275,0 0.5,0.224 0.5,0.5l0,7.501l-5.498,0c-0.827,0 -1.5,0.673 -1.5,1.5l0,2.5Z" style="fill-opacity:0.4;fill-rule:nonzero;"/><path d="M6.001,12.001l0,-2c0,-1.103 0.897,-2 2,-2l4.998,0l0,-7.001l-11.999,0l0,11.001l5.001,0m1,1l-0.001,0l-6,0c-0.552,0 -1,-0.448 -1,-1l0,-11.001c0,-0.551 0.448,-1 1,-1l11.999,0c0.552,0 1,0.449 1,1l0,8.001l-5.998,0c-0.552,0 -1,0.449 -1,1l0,3Z" style="fill-rule:nonzero;"/></g><g id="Rectangle_1741"><path d="M21,9.001c0,-0.552 -0.448,-1 -1,-1l-13,0c-0.552,0 -1,0.448 -1,1l0,11c0,0.552 0.448,1 1,1l13,0c0.552,0 1,-0.448 1,-1l0,-11Z" style="fill:none;"/><path d="M20.5,9.001c0,-0.276 -0.224,-0.5 -0.5,-0.5l-13,0c-0.276,0 -0.5,0.224 -0.5,0.5l0,11c0,0.276 0.224,0.5 0.5,0.5l13,0c0.276,0 0.5,-0.224 0.5,-0.5l0,-11Z" style="fill:none;stroke:#000;stroke-width:1px;"/></g></g></svg>