<svg xmlns="http://www.w3.org/2000/svg" xmlns:xlink="http://www.w3.org/1999/xlink"><symbol viewBox="0 0 25 25" id="svg--drill-tool-2-custom"><path d="M9.543 14.041c-2.118-3.025-2.578-3.79-2.578-5.506C6.965 5.499 9.464 3 12.5 3c3.037 0 5.536 2.499 5.536 5.535 0 1.717-.461 2.481-2.578 5.507L24 17.022l-11.5 5.173L1 17.022l8.543-2.981zm.44.629l-6.991 2.439 9.508 4.277 9.508-4.277-6.991-2.439c-.548.782-1.193 1.7-1.948 2.795a.694.694 0 01-1.138 0 385.56 385.56 0 00-1.948-2.795zm2.517-3.829a2.317 2.317 0 01-2.306-2.306A2.317 2.317 0 0112.5 6.229a2.317 2.317 0 012.307 2.306 2.317 2.317 0 01-2.307 2.306z"/></symbol><symbol viewBox="0 0 25 21" id="svg--drill-tool-custom"><path d="M7.254 10.243L5.97 7.067a1.507 1.507 0 011.903-1.992l2.394.919-.105-4.392A1.52 1.52 0 0111.617.044L13.14 0a1.456 1.456 0 011.49 1.439l.104 4.295 2.443-1.265a1.466 1.466 0 011.195-.066c.75.288 1.13 1.142.842 1.892l-.013.033-1.503 3.915h6.764a.5.5 0 010 1h-7.148l-.767 1.998h7.915a.5.5 0 010 1h-8.299l-.767 1.998h9.066a.5.5 0 010 1h-9.449l-1.059 2.757-.011.032a1.472 1.472 0 01-1.893.842 1.466 1.466 0 01-.83-.81l-1.14-2.821H.5a.5.5 0 010-1h9.176l-.807-1.998H.5a.5.5 0 010-1h7.965l-.807-1.998H.5a.5.5 0 010-1h6.754zm6.277-2.471l-.151-6.303a.21.21 0 00-.205-.219l-1.523.043a.27.27 0 00-.24.28l.15 6.256-4.137-1.588a.26.26 0 00-.296.358l5.25 12.992c.077.191.33.165.409-.042L18.035 5.88c.081-.211-.095-.399-.281-.303l-4.223 2.195z"/></symbol><symbol class="csvg-inline--fa cfa-exclamation-triangle cfa-w-18" viewBox="0 0 576 512" id="svg--exclamation-triangle-solid" xmlns="http://www.w3.org/2000/svg"><path fill="currentColor" d="M569.517 440.013C587.975 472.007 564.806 512 527.94 512H48.054c-36.937 0-59.999-40.055-41.577-71.987L246.423 23.985c18.467-32.009 64.72-31.951 83.154 0l239.94 416.028zM288 354c-25.405 0-46 20.595-46 46s20.595 46 46 46 46-20.595 46-46-20.595-46-46-46zm-43.673-165.346l7.418 136c.347 6.364 5.609 11.346 11.982 11.346h48.546c6.373 0 11.635-4.982 11.982-11.346l7.418-136c.375-6.874-5.098-12.654-11.982-12.654h-63.383c-6.884 0-12.356 5.78-11.981 12.654z"/></symbol><symbol viewBox="0 0 25 25" id="svg--infoclick-2-custom"><path d="M12.5 2.563C6.148 2.562 1 6.745 1 11.906c0 2.228.961 4.268 2.561 5.872-.562 2.264-2.44 4.281-2.462 4.303a.358.358 0 00-.068.391.352.352 0 00.328.215c2.979 0 5.211-1.428 6.316-2.309 1.469.553 3.1.872 4.825.872 6.352 0 11.5-4.182 11.5-9.344 0-5.161-5.148-9.344-11.5-9.344zm.681 7.793h-2.118a.38.38 0 00-.379.379v.903c0 .209.17.378.379.378h.378v2.733h-.378a.379.379 0 00-.379.378v.904c0 .209.17.378.379.378h2.875a.378.378 0 00.378-.378v-.904a.378.378 0 00-.378-.378h-.379v-4.014a.379.379 0 00-.378-.379zM12.5 6.725a1.362 1.362 0 100 2.723 1.362 1.362 0 000-2.723z"/></symbol><symbol viewBox="0 0 25 23" id="svg--infoclick-custom"><path d="M12.297 19.563l-1.454-3.533-1.623 1.831a1.3 1.3 0 01-.97.435c-.714 0-1.3-.587-1.3-1.3V3.958v-.034c0-.713.586-1.3 1.3-1.3a1.3 1.3 0 01.948.411l8.49 9.1c.234.248.364.577.364.918 0 .723-.584 1.322-1.307 1.34h-2.28l1.485 3.613a1.35 1.35 0 01-.71 1.756l-1.249.52a1.296 1.296 0 01-1.694-.719zm-1.1-5.6l2.131 5.179a.185.185 0 00.24.116l1.249-.52a.24.24 0 00.111-.309l-2.12-5.142h3.936a.23.23 0 00.132-.391l-8.49-9.1c-.125-.134-.326-.032-.326.165v13.003c0 .2.206.3.329.161l2.808-3.162z"/></symbol></svg>