<!DOCTYPE svg PUBLIC "-//W3C//DTD SVG 1.1//EN" "http://www.w3.org/Graphics/SVG/1.1/DTD/svg11.dtd"><svg class="svg-sprite" xmlns="http://www.w3.org/2000/svg" xmlns:xlink="http://www.w3.org/1999/xlink"><symbol viewBox="0 0 512 512" id="svg--asterisk-solid" xmlns="http://www.w3.org/2000/svg"><path fill="currentColor" d="M478.21 334.093L336 256l142.21-78.093c11.795-6.477 15.961-21.384 9.232-33.037l-19.48-33.741c-6.728-11.653-21.72-15.499-33.227-8.523L296 186.718l3.475-162.204C299.763 11.061 288.937 0 275.48 0h-38.96c-13.456 0-24.283 11.061-23.994 24.514L216 186.718 77.265 102.607c-11.506-6.976-26.499-3.13-33.227 8.523l-19.48 33.741c-6.728 11.653-2.562 26.56 9.233 33.037L176 256 33.79 334.093c-11.795 6.477-15.961 21.384-9.232 33.037l19.48 33.741c6.728 11.653 21.721 15.499 33.227 8.523L216 325.282l-3.475 162.204C212.237 500.939 223.064 512 236.52 512h38.961c13.456 0 24.283-11.061 23.995-24.514L296 325.282l138.735 84.111c11.506 6.976 26.499 3.13 33.227-8.523l19.48-33.741c6.728-11.653 2.563-26.559-9.232-33.036z"/></symbol><symbol class="absvg-inline--fa abfa-bars abfa-w-14" viewBox="0 0 448 512" id="svg--bars-solid" xmlns="http://www.w3.org/2000/svg"><path fill="currentColor" d="M16 132h416c8.837 0 16-7.163 16-16V76c0-8.837-7.163-16-16-16H16C7.163 60 0 67.163 0 76v40c0 8.837 7.163 16 16 16zm0 160h416c8.837 0 16-7.163 16-16v-40c0-8.837-7.163-16-16-16H16c-8.837 0-16 7.163-16 16v40c0 8.837 7.163 16 16 16zm0 160h416c8.837 0 16-7.163 16-16v-40c0-8.837-7.163-16-16-16H16c-8.837 0-16 7.163-16 16v40c0 8.837 7.163 16 16 16z"/></symbol><symbol class="acsvg-inline--fa acfa-caret-down acfa-w-10" viewBox="0 0 320 512" id="svg--caret-down-solid" xmlns="http://www.w3.org/2000/svg"><path fill="currentColor" d="M31.3 192h257.3c17.8 0 26.7 21.5 14.1 34.1L174.1 354.8c-7.8 7.8-20.5 7.8-28.3 0L17.2 226.1C4.6 213.5 13.5 192 31.3 192z"/></symbol><symbol class="adsvg-inline--fa adfa-caret-right adfa-w-6" viewBox="0 0 192 512" id="svg--caret-right-solid" xmlns="http://www.w3.org/2000/svg"><path fill="currentColor" d="M0 384.662V127.338c0-17.818 21.543-26.741 34.142-14.142l128.662 128.662c7.81 7.81 7.81 20.474 0 28.284L34.142 398.804C21.543 411.404 0 402.48 0 384.662z"/></symbol><symbol class="aesvg-inline--fa aefa-caret-up aefa-w-10" viewBox="0 0 320 512" id="svg--caret-up-solid" xmlns="http://www.w3.org/2000/svg"><path fill="currentColor" d="M288.662 352H31.338c-17.818 0-26.741-21.543-14.142-34.142l128.662-128.662c7.81-7.81 20.474-7.81 28.284 0l128.662 128.662c12.6 12.599 3.676 34.142-14.142 34.142z"/></symbol><symbol class="afsvg-inline--fa affa-check affa-w-16" viewBox="0 0 512 512" id="svg--check-solid" xmlns="http://www.w3.org/2000/svg"><path fill="currentColor" d="M173.898 439.404l-166.4-166.4c-9.997-9.997-9.997-26.206 0-36.204l36.203-36.204c9.997-9.998 26.207-9.998 36.204 0L192 312.69 432.095 72.596c9.997-9.997 26.207-9.997 36.204 0l36.203 36.204c9.997 9.997 9.997 26.206 0 36.204l-294.4 294.401c-9.998 9.997-26.207 9.997-36.204-.001z"/></symbol><symbol class="agsvg-inline--fa agfa-chevron-left agfa-w-10" viewBox="0 0 320 512" id="svg--chevron-left-solid" xmlns="http://www.w3.org/2000/svg"><path fill="currentColor" d="M34.52 239.03L228.87 44.69c9.37-9.37 24.57-9.37 33.94 0l22.67 22.67c9.36 9.36 9.37 24.52.04 33.9L131.49 256l154.02 154.75c9.34 9.38 9.32 24.54-.04 33.9l-22.67 22.67c-9.37 9.37-24.57 9.37-33.94 0L34.52 272.97c-9.37-9.37-9.37-24.57 0-33.94z"/></symbol><symbol class="ahsvg-inline--fa ahfa-download ahfa-w-16" viewBox="0 0 512 512" id="svg--download-solid" xmlns="http://www.w3.org/2000/svg"><path fill="currentColor" d="M216 0h80c13.3 0 24 10.7 24 24v168h87.7c17.8 0 26.7 21.5 14.1 34.1L269.7 378.3c-7.5 7.5-19.8 7.5-27.3 0L90.1 226.1c-12.6-12.6-3.7-34.1 14.1-34.1H192V24c0-13.3 10.7-24 24-24zm296 376v112c0 13.3-10.7 24-24 24H24c-13.3 0-24-10.7-24-24V376c0-13.3 10.7-24 24-24h146.7l49 49c20.1 20.1 52.5 20.1 72.6 0l49-49H488c13.3 0 24 10.7 24 24zm-124 88c0-11-9-20-20-20s-20 9-20 20 9 20 20 20 20-9 20-20zm64 0c0-11-9-20-20-20s-20 9-20 20 9 20 20 20 20-9 20-20z"/></symbol><symbol viewBox="0 0 25 25" id="svg--drill-tool-2-custom"><path d="M9.543 14.041c-2.118-3.025-2.578-3.79-2.578-5.506C6.965 5.499 9.464 3 12.5 3c3.037 0 5.536 2.499 5.536 5.535 0 1.717-.461 2.481-2.578 5.507L24 17.022l-11.5 5.173L1 17.022l8.543-2.981zm.44.629l-6.991 2.439 9.508 4.277 9.508-4.277-6.991-2.439c-.548.782-1.193 1.7-1.948 2.795a.694.694 0 01-1.138 0 385.56 385.56 0 00-1.948-2.795zm2.517-3.829a2.317 2.317 0 01-2.306-2.306A2.317 2.317 0 0112.5 6.229a2.317 2.317 0 012.307 2.306 2.317 2.317 0 01-2.307 2.306z"/></symbol><symbol viewBox="0 0 25 21" id="svg--drill-tool-custom"><path d="M7.254 10.243L5.97 7.067a1.507 1.507 0 011.903-1.992l2.394.919-.105-4.392A1.52 1.52 0 0111.617.044L13.14 0a1.456 1.456 0 011.49 1.439l.104 4.295 2.443-1.265a1.466 1.466 0 011.195-.066c.75.288 1.13 1.142.842 1.892l-.013.033-1.503 3.915h6.764a.5.5 0 010 1h-7.148l-.767 1.998h7.915a.5.5 0 010 1h-8.299l-.767 1.998h9.066a.5.5 0 010 1h-9.449l-1.059 2.757-.011.032a1.472 1.472 0 01-1.893.842 1.466 1.466 0 01-.83-.81l-1.14-2.821H.5a.5.5 0 010-1h9.176l-.807-1.998H.5a.5.5 0 010-1h7.965l-.807-1.998H.5a.5.5 0 010-1h6.754zm6.277-2.471l-.151-6.303a.21.21 0 00-.205-.219l-1.523.043a.27.27 0 00-.24.28l.15 6.256-4.137-1.588a.26.26 0 00-.296.358l5.25 12.992c.077.191.33.165.409-.042L18.035 5.88c.081-.211-.095-.399-.281-.303l-4.223 2.195z"/></symbol><symbol class="aksvg-inline--fa akfa-edit akfa-w-18" viewBox="0 0 576 512" id="svg--edit-solid" xmlns="http://www.w3.org/2000/svg"><path fill="currentColor" d="M402.6 83.2l90.2 90.2c3.8 3.8 3.8 10 0 13.8L274.4 405.6l-92.8 10.3c-12.4 1.4-22.9-9.1-21.5-21.5l10.3-92.8L388.8 83.2c3.8-3.8 10-3.8 13.8 0zm162-22.9l-48.8-48.8c-15.2-15.2-39.9-15.2-55.2 0l-35.4 35.4c-3.8 3.8-3.8 10 0 13.8l90.2 90.2c3.8 3.8 10 3.8 13.8 0l35.4-35.4c15.2-15.3 15.2-40 0-55.2zM384 346.2V448H64V128h229.8c3.2 0 6.2-1.3 8.5-3.5l40-40c7.6-7.6 2.2-20.5-8.5-20.5H48C21.5 64 0 85.5 0 112v352c0 26.5 21.5 48 48 48h352c26.5 0 48-21.5 48-48V306.2c0-10.7-12.9-16-20.5-8.5l-40 40c-2.2 2.3-3.5 5.3-3.5 8.5z"/></symbol><symbol class="alsvg-inline--fa alfa-ellipsis-v alfa-w-6" viewBox="0 0 192 512" id="svg--ellipsis-v-solid" xmlns="http://www.w3.org/2000/svg"><path fill="currentColor" d="M96 184c39.8 0 72 32.2 72 72s-32.2 72-72 72-72-32.2-72-72 32.2-72 72-72zM24 80c0 39.8 32.2 72 72 72s72-32.2 72-72S135.8 8 96 8 24 40.2 24 80zm0 352c0 39.8 32.2 72 72 72s72-32.2 72-72-32.2-72-72-72-72 32.2-72 72z"/></symbol><symbol class="amsvg-inline--fa amfa-exclamation-circle amfa-w-16" viewBox="0 0 512 512" id="svg--exclamation-circle-solid" xmlns="http://www.w3.org/2000/svg"><path fill="currentColor" d="M504 256c0 136.997-111.043 248-248 248S8 392.997 8 256C8 119.083 119.043 8 256 8s248 111.083 248 248zm-248 50c-25.405 0-46 20.595-46 46s20.595 46 46 46 46-20.595 46-46-20.595-46-46-46zm-43.673-165.346l7.418 136c.347 6.364 5.609 11.346 11.982 11.346h48.546c6.373 0 11.635-4.982 11.982-11.346l7.418-136c.375-6.874-5.098-12.654-11.982-12.654h-63.383c-6.884 0-12.356 5.78-11.981 12.654z"/></symbol><symbol class="ansvg-inline--fa anfa-exclamation-square anfa-w-16" viewBox="0 0 512 512" fill-rule="evenodd" clip-rule="evenodd" stroke-linejoin="round" stroke-miterlimit="1.414" id="svg--exclamation-circle-solid--icon" xmlns="http://www.w3.org/2000/svg"><path d="M438.175 26c27.816 0 50.399 22.583 50.399 50.399v362.776c0 27.816-22.583 50.399-50.399 50.399H75.399C47.583 489.574 25 466.991 25 439.175V76.399C25 48.583 47.582 26 75.399 26h362.776zM256.101 306.253c25.388 0 46.001 20.612 46.001 46.001s-20.613 46.001-46.001 46.001c-25.389 0-46.002-20.612-46.002-46.001s20.613-46.001 46.002-46.001zM279.116 288c7.111 0 12.884-5.773 12.884-12.884l9-135.232c0-7.111-5.773-12.884-12.884-12.884h-63.232c-7.111 0-12.884 5.773-12.884 12.884l7 135.232c0 7.111 5.773 12.884 12.884 12.884h47.232z"/></symbol><symbol class="aosvg-inline--fa aofa-exclamation-triangle aofa-w-18" viewBox="0 0 576 512" id="svg--exclamation-triangle-solid" xmlns="http://www.w3.org/2000/svg"><path fill="currentColor" d="M569.517 440.013C587.975 472.007 564.806 512 527.94 512H48.054c-36.937 0-59.999-40.055-41.577-71.987L246.423 23.985c18.467-32.009 64.72-31.951 83.154 0l239.94 416.028zM288 354c-25.405 0-46 20.595-46 46s20.595 46 46 46 46-20.595 46-46-20.595-46-46-46zm-43.673-165.346l7.418 136c.347 6.364 5.609 11.346 11.982 11.346h48.546c6.373 0 11.635-4.982 11.982-11.346l7.418-136c.375-6.874-5.098-12.654-11.982-12.654h-63.383c-6.884 0-12.356 5.78-11.981 12.654z"/></symbol><symbol viewBox="0 0 576 512" class="apsvg-inline--fa apfa-farm apfa-w-18 apfa-7x" id="svg--farm" xmlns="http://www.w3.org/2000/svg"><path fill="currentColor" d="M221.5 91.08l.37-.17A111.93 111.93 0 000 112v400h128V260.54a64.35 64.35 0 016.76-28.63l55.48-111a64.12 64.12 0 0131.26-29.83zm351.12 155.14l-55.49-111a32 32 0 00-15.62-14.93L381 66.76a32 32 0 00-26 0l-120.51 53.56a32 32 0 00-15.62 14.93l-55.49 111a32.08 32.08 0 00-3.38 14.29V512h128v-96h160v96h128V260.54a32.08 32.08 0 00-3.38-14.32zM416 320h-96v-96h96z"/></symbol><symbol class="aqsvg-inline--fa aqfa-history aqfa-w-16" viewBox="0 0 512 512" id="svg--history-solid" xmlns="http://www.w3.org/2000/svg"><path fill="currentColor" d="M504 255.531c.253 136.64-111.18 248.372-247.82 248.468-59.015.042-113.223-20.53-155.822-54.911-11.077-8.94-11.905-25.541-1.839-35.607l11.267-11.267c8.609-8.609 22.353-9.551 31.891-1.984C173.062 425.135 212.781 440 256 440c101.705 0 184-82.311 184-184 0-101.705-82.311-184-184-184-48.814 0-93.149 18.969-126.068 49.932l50.754 50.754c10.08 10.08 2.941 27.314-11.313 27.314H24c-8.837 0-16-7.163-16-16V38.627c0-14.254 17.234-21.393 27.314-11.314l49.372 49.372C129.209 34.136 189.552 8 256 8c136.81 0 247.747 110.78 248 247.531zm-180.912 78.784l9.823-12.63c8.138-10.463 6.253-25.542-4.21-33.679L288 256.349V152c0-13.255-10.745-24-24-24h-16c-13.255 0-24 10.745-24 24v135.651l65.409 50.874c10.463 8.137 25.541 6.253 33.679-4.21z"/></symbol><symbol class="arsvg-inline--fa arfa-home arfa-w-18" viewBox="0 0 576 512" id="svg--home-solid" xmlns="http://www.w3.org/2000/svg"><path fill="currentColor" d="M280.37 148.26L96 300.11V464a16 16 0 0016 16l112.06-.29a16 16 0 0015.92-16V368a16 16 0 0116-16h64a16 16 0 0116 16v95.64a16 16 0 0016 16.05L464 480a16 16 0 0016-16V300L295.67 148.26a12.19 12.19 0 00-15.3 0zM571.6 251.47L488 182.56V44.05a12 12 0 00-12-12h-56a12 12 0 00-12 12v72.61L318.47 43a48 48 0 00-61 0L4.34 251.47a12 12 0 00-1.6 16.9l25.5 31A12 12 0 0045.15 301l235.22-193.74a12.19 12.19 0 0115.3 0L530.9 301a12 12 0 0016.9-1.6l25.5-31a12 12 0 00-1.7-16.93z"/></symbol><symbol viewBox="0 0 25 25" id="svg--infoclick-2-custom"><path d="M12.5 2.563C6.148 2.562 1 6.745 1 11.906c0 2.228.961 4.268 2.561 5.872-.562 2.264-2.44 4.281-2.462 4.303a.358.358 0 00-.068.391.352.352 0 00.328.215c2.979 0 5.211-1.428 6.316-2.309 1.469.553 3.1.872 4.825.872 6.352 0 11.5-4.182 11.5-9.344 0-5.161-5.148-9.344-11.5-9.344zm.681 7.793h-2.118a.38.38 0 00-.379.379v.903c0 .209.17.378.379.378h.378v2.733h-.378a.379.379 0 00-.379.378v.904c0 .209.17.378.379.378h2.875a.378.378 0 00.378-.378v-.904a.378.378 0 00-.378-.378h-.379v-4.014a.379.379 0 00-.378-.379zM12.5 6.725a1.362 1.362 0 100 2.723 1.362 1.362 0 000-2.723z"/></symbol><symbol viewBox="0 0 25 23" id="svg--infoclick-custom"><path d="M12.297 19.563l-1.454-3.533-1.623 1.831a1.3 1.3 0 01-.97.435c-.714 0-1.3-.587-1.3-1.3V3.958v-.034c0-.713.586-1.3 1.3-1.3a1.3 1.3 0 01.948.411l8.49 9.1c.234.248.364.577.364.918 0 .723-.584 1.322-1.307 1.34h-2.28l1.485 3.613a1.35 1.35 0 01-.71 1.756l-1.249.52a1.296 1.296 0 01-1.694-.719zm-1.1-5.6l2.131 5.179a.185.185 0 00.24.116l1.249-.52a.24.24 0 00.111-.309l-2.12-5.142h3.936a.23.23 0 00.132-.391l-8.49-9.1c-.125-.134-.326-.032-.326.165v13.003c0 .2.206.3.329.161l2.808-3.162z"/></symbol><symbol viewBox="0 0 512 512" id="svg--layer-group-solid"><path d="M35.499 158.255l210.86 95.654a23.18 23.18 0 0019.272 0l210.861-95.654c14.981-6.798 14.981-29.438 0-36.236L265.641 26.356a23.188 23.188 0 00-19.272 0L35.499 122.01c-14.981 6.798-14.981 29.447 0 36.245zm441.002 79.912l-52.584-23.834-146.319 66.325a51.936 51.936 0 01-21.598 4.68c-7.486 0-14.746-1.575-21.598-4.68l-146.31-66.325-52.593 23.834c-14.981 6.789-14.981 29.419 0 36.209l210.86 95.581a23.248 23.248 0 0019.272 0l210.87-95.581c14.981-6.79 14.981-29.42 0-36.209zm0 115.686l-52.385-23.743-146.518 66.415a51.936 51.936 0 01-21.598 4.68c-7.486 0-14.746-1.575-21.598-4.68L87.893 330.11l-52.394 23.743c-14.981 6.789-14.981 29.42 0 36.209l210.86 95.582a23.248 23.248 0 0019.272 0l210.87-95.582c14.981-6.789 14.981-29.42 0-36.209z"/></symbol><symbol class="avsvg-inline--fa avfa-lock avfa-w-14" viewBox="0 0 448 512" id="svg--lock-solid" xmlns="http://www.w3.org/2000/svg"><path fill="currentColor" d="M400 224h-24v-72C376 68.2 307.8 0 224 0S72 68.2 72 152v72H48c-26.5 0-48 21.5-48 48v192c0 26.5 21.5 48 48 48h352c26.5 0 48-21.5 48-48V272c0-26.5-21.5-48-48-48zm-104 0H152v-72c0-39.7 32.3-72 72-72s72 32.3 72 72v72z"/></symbol><symbol viewBox="0 0 21 21" fill-rule="evenodd" clip-rule="evenodd" stroke-linejoin="round" stroke-miterlimit="2" id="svg--merge-solid" xmlns="http://www.w3.org/2000/svg"><g fill-rule="nonzero"><path d="M20 20.5H7a.5.5 0 01-.5-.5v-7.5H1a.5.5 0 01-.5-.5V1A.5.5 0 011 .5h12a.5.5 0 01.5.5v7.5H20a.5.5 0 01.5.5v11a.5.5 0 01-.5.5z" fill-opacity=".4"/><path d="M20 20V9h-7V1H1v11h6v8h13m0 1H7a1 1 0 01-1-1v-7H1a1 1 0 01-1-1V1a1 1 0 011-1h12a1 1 0 011 1v7h6a1 1 0 011 1v11a1 1 0 01-1 1z"/></g></symbol><symbol class="axsvg-inline--fa axfa-piggy-bank axfa-w-18" viewBox="0 0 576 512" id="svg--piggy-bank-solid" xmlns="http://www.w3.org/2000/svg"><path fill="currentColor" d="M560 224h-29.5c-8.8-20-21.6-37.7-37.4-52.5L512 96h-32c-29.4 0-55.4 13.5-73 34.3-7.6-1.1-15.1-2.3-23-2.3H256c-77.4 0-141.9 55-156.8 128H56c-14.8 0-26.5-13.5-23.5-28.8C34.7 215.8 45.4 208 57 208h1c3.3 0 6-2.7 6-6v-20c0-3.3-2.7-6-6-6-28.5 0-53.9 20.4-57.5 48.6C-3.9 258.8 22.7 288 56 288h40c0 52.2 25.4 98.1 64 127.3V496c0 8.8 7.2 16 16 16h64c8.8 0 16-7.2 16-16v-48h128v48c0 8.8 7.2 16 16 16h64c8.8 0 16-7.2 16-16v-80.7c11.8-8.9 22.3-19.4 31.3-31.3H560c8.8 0 16-7.2 16-16V240c0-8.8-7.2-16-16-16zm-128 64c-8.8 0-16-7.2-16-16s7.2-16 16-16 16 7.2 16 16-7.2 16-16 16zM256 96h128c5.4 0 10.7.4 15.9.8 0-.3.1-.5.1-.8 0-53-43-96-96-96s-96 43-96 96c0 2.1.5 4.1.6 6.2 15.2-3.9 31-6.2 47.4-6.2z"/></symbol><symbol class="aysvg-inline--fa ayfa-plus ayfa-w-14" viewBox="0 0 448 512" id="svg--plus-solid" xmlns="http://www.w3.org/2000/svg"><path fill="currentColor" d="M416 208H272V64c0-17.67-14.33-32-32-32h-32c-17.67 0-32 14.33-32 32v144H32c-17.67 0-32 14.33-32 32v32c0 17.67 14.33 32 32 32h144v144c0 17.67 14.33 32 32 32h32c17.67 0 32-14.33 32-32V304h144c17.67 0 32-14.33 32-32v-32c0-17.67-14.33-32-32-32z"/></symbol><symbol viewBox="0 0 448 448" id="svg--plus-solid-w-dropdown"><path d="M379.551 190.612H258.388V69.449c0-14.867-12.058-26.925-26.925-26.925h-14.926c-14.867 0-26.925 12.058-26.925 26.925v121.163H68.449c-14.867 0-26.925 12.058-26.925 26.925v13.926c0 14.867 12.058 26.925 26.925 26.925h121.163v121.163c0 14.867 12.058 26.925 26.925 26.925h14.926c14.867 0 26.925-12.058 26.925-26.925V258.388h121.163c14.867 0 26.925-12.058 26.925-26.925v-13.926c0-14.867-12.058-26.925-26.925-26.925zM373.064 436.161l63.097-63.097c4.369-4.369 11.839-1.275 11.839 4.904v63.097a6.935 6.935 0 01-6.935 6.935h-63.097c-6.179 0-9.273-7.47-4.904-11.839z"/></symbol><symbol class="basvg-inline--fa bafa-question-circle bafa-w-16" viewBox="0 0 512 512" id="svg--question-circle-solid" xmlns="http://www.w3.org/2000/svg"><path fill="currentColor" d="M504 256c0 136.997-111.043 248-248 248S8 392.997 8 256C8 119.083 119.043 8 256 8s248 111.083 248 248zM262.655 90c-54.497 0-89.255 22.957-116.549 63.758-3.536 5.286-2.353 12.415 2.715 16.258l34.699 26.31c5.205 3.947 12.621 3.008 16.665-2.122 17.864-22.658 30.113-35.797 57.303-35.797 20.429 0 45.698 13.148 45.698 32.958 0 14.976-12.363 22.667-32.534 33.976C247.128 238.528 216 254.941 216 296v4c0 6.627 5.373 12 12 12h56c6.627 0 12-5.373 12-12v-1.333c0-28.462 83.186-29.647 83.186-106.667 0-58.002-60.165-102-116.531-102zM256 338c-25.365 0-46 20.635-46 46 0 25.364 20.635 46 46 46s46-20.636 46-46c0-25.365-20.635-46-46-46z"/></symbol><symbol class="bbsvg-inline--fa bbfa-save bbfa-w-14" viewBox="0 0 448 512" id="svg--save-solid" xmlns="http://www.w3.org/2000/svg"><path fill="currentColor" d="M433.941 129.941l-83.882-83.882A48 48 0 00316.118 32H48C21.49 32 0 53.49 0 80v352c0 26.51 21.49 48 48 48h352c26.51 0 48-21.49 48-48V163.882a48 48 0 00-14.059-33.941zM224 416c-35.346 0-64-28.654-64-64 0-35.346 28.654-64 64-64s64 28.654 64 64c0 35.346-28.654 64-64 64zm96-304.52V212c0 6.627-5.373 12-12 12H76c-6.627 0-12-5.373-12-12V108c0-6.627 5.373-12 12-12h228.52c3.183 0 6.235 1.264 8.485 3.515l3.48 3.48A11.996 11.996 0 01320 111.48z"/></symbol><symbol class="bcsvg-inline--fa bcfa-search bcfa-w-16" viewBox="0 0 512 512" id="svg--search-solid" xmlns="http://www.w3.org/2000/svg"><path fill="currentColor" d="M505 442.7L405.3 343c-4.5-4.5-10.6-7-17-7H372c27.6-35.3 44-79.7 44-128C416 93.1 322.9 0 208 0S0 93.1 0 208s93.1 208 208 208c48.3 0 92.7-16.4 128-44v16.3c0 6.4 2.5 12.5 7 17l99.7 99.7c9.4 9.4 24.6 9.4 33.9 0l28.3-28.3c9.4-9.4 9.4-24.6.1-34zM208 336c-70.7 0-128-57.2-128-128 0-70.7 57.2-128 128-128 70.7 0 128 57.2 128 128 0 70.7-57.2 128-128 128z"/></symbol><symbol class="bdsvg-inline--fa bdfa-seedling bdfa-w-16" viewBox="0 0 512 512" id="svg--seedling-solid" xmlns="http://www.w3.org/2000/svg"><path fill="currentColor" d="M64 96H0c0 123.7 100.3 224 224 224v144c0 8.8 7.2 16 16 16h32c8.8 0 16-7.2 16-16V320C288 196.3 187.7 96 64 96zm384-64c-84.2 0-157.4 46.5-195.7 115.2 27.7 30.2 48.2 66.9 59 107.6C424 243.1 512 147.9 512 32h-64z"/></symbol><symbol viewBox="0 0 23 23" fill-rule="evenodd" clip-rule="evenodd" stroke-linejoin="round" stroke-miterlimit="2" id="svg--slice-solid"><path d="M12.333 19.27H9.558h-.001a.278.278 0 00-.277.277v.557c0 .152.125.277.277.277H12.334a.278.278 0 00.277-.277v-.556-.001a.278.278 0 00-.277-.277h-.001zm5 0h-2.78-.001a.278.278 0 00-.277.277v.557c0 .152.125.277.277.277H17.329a.278.278 0 00.277-.277v-.556-.001a.278.278 0 00-.277-.277h-.001.005zm5 0h-2.785-.001a.278.278 0 00-.277.277v.557c0 .152.125.277.277.277H22.324a.278.278 0 00.277-.277v-.556-.001a.278.278 0 00-.277-.277h-.001.01zM18.141 3.077c-.423-.3-.929-.46-1.448-.457a2.868 2.868 0 00-2.155 1L6.771 12.7a.601.601 0 00-.017.748L.4 20.38h.013c3.438.019 6.78-1.14 9.468-3.284l.024-.019a5.187 5.187 0 001.812-3.357h.609c.361 0 .704-.159.939-.433l5.358-6.261a2.7 2.7 0 00-.483-3.95l.001.001zM9.182 16.234a13.639 13.639 0 01-6.017 2.773l4.846-5.287h2.609a4.118 4.118 0 01-1.438 2.514zm8.6-9.929l-5.36 6.261a.128.128 0 01-.1.044H8.31l7.071-8.264c.328-.385.806-.61 1.312-.617.286-.002.566.085.8.25.364.257.601.657.652 1.1.055.443-.079.888-.368 1.228l.005-.002z" fill-rule="nonzero"/></symbol><symbol class="bfsvg-inline--fa bffa-square bffa-w-14" viewBox="0 0 448 512" id="svg--square-regular" xmlns="http://www.w3.org/2000/svg"><path fill="currentColor" d="M400 32H48C21.5 32 0 53.5 0 80v352c0 26.5 21.5 48 48 48h352c26.5 0 48-21.5 48-48V80c0-26.5-21.5-48-48-48zm-6 400H54c-3.3 0-6-2.7-6-6V86c0-3.3 2.7-6 6-6h340c3.3 0 6 2.7 6 6v340c0 3.3-2.7 6-6 6z"/></symbol><symbol class="bgsvg-inline--fa bgfa-square bgfa-w-14" viewBox="0 0 448 512" id="svg--square-solid" xmlns="http://www.w3.org/2000/svg"><path fill="currentColor" d="M400 32H48C21.5 32 0 53.5 0 80v352c0 26.5 21.5 48 48 48h352c26.5 0 48-21.5 48-48V80c0-26.5-21.5-48-48-48z"/></symbol><symbol class="bhsvg-inline--fa bhfa-tasks bhfa-w-16" viewBox="0 0 512 512" id="svg--tasks-solid" xmlns="http://www.w3.org/2000/svg"><path fill="currentColor" d="M139.61 35.5a12 12 0 00-17 0L58.93 98.81l-22.7-22.12a12 12 0 00-17 0L3.53 92.41a12 12 0 000 17l47.59 47.4a12.78 12.78 0 0017.61 0l15.59-15.62L156.52 69a12.09 12.09 0 00.09-17zm0 159.19a12 12 0 00-17 0l-63.68 63.72-22.7-22.1a12 12 0 00-17 0L3.53 252a12 12 0 000 17L51 316.5a12.77 12.77 0 0017.6 0l15.7-15.69 72.2-72.22a12 12 0 00.09-16.9zM64 368c-26.49 0-48.59 21.5-48.59 48S37.53 464 64 464a48 48 0 000-96zm432 16H208a16 16 0 00-16 16v32a16 16 0 0016 16h288a16 16 0 0016-16v-32a16 16 0 00-16-16zm0-320H208a16 16 0 00-16 16v32a16 16 0 0016 16h288a16 16 0 0016-16V80a16 16 0 00-16-16zm0 160H208a16 16 0 00-16 16v32a16 16 0 0016 16h288a16 16 0 0016-16v-32a16 16 0 00-16-16z"/></symbol><symbol class="bisvg-inline--fa bifa-th-large bifa-w-16" viewBox="0 0 512 512" id="svg--th-large-solid" xmlns="http://www.w3.org/2000/svg"><path fill="currentColor" d="M296 32h192c13.255 0 24 10.745 24 24v160c0 13.255-10.745 24-24 24H296c-13.255 0-24-10.745-24-24V56c0-13.255 10.745-24 24-24zm-80 0H24C10.745 32 0 42.745 0 56v160c0 13.255 10.745 24 24 24h192c13.255 0 24-10.745 24-24V56c0-13.255-10.745-24-24-24zM0 296v160c0 13.255 10.745 24 24 24h192c13.255 0 24-10.745 24-24V296c0-13.255-10.745-24-24-24H24c-13.255 0-24 10.745-24 24zm296 184h192c13.255 0 24-10.745 24-24V296c0-13.255-10.745-24-24-24H296c-13.255 0-24 10.745-24 24v160c0 13.255 10.745 24 24 24z"/></symbol><symbol viewBox="0 0 512 512" id="svg--times-hexagon-solid"><path d="M497.9 150.5c9 9 14.1 21.2 14.1 33.9v143.1c0 12.7-5.1 24.9-14.1 33.9L361.5 497.9c-9 9-21.2 14.1-33.9 14.1H184.5c-12.7 0-24.9-5.1-33.9-14.1L14.1 361.5c-9-9-14.1-21.2-14.1-33.9V184.5c0-12.7 5.1-24.9 14.1-33.9L150.5 14.1c9-9 21.2-14.1 33.9-14.1h143.1c12.7 0 24.9 5.1 33.9 14.1l136.5 136.4zM377.6 338c4.7-4.7 4.7-12.3 0-17l-65-65 65.1-65.1c4.7-4.7 4.7-12.3 0-17L338 134.4c-4.7-4.7-12.3-4.7-17 0l-65 65-65.1-65.1c-4.7-4.7-12.3-4.7-17 0L134.4 174c-4.7 4.7-4.7 12.3 0 17l65.1 65.1-65.1 65.1c-4.7 4.7-4.7 12.3 0 17l39.6 39.6c4.7 4.7 12.3 4.7 17 0l65.1-65.1 65.1 65.1c4.7 4.7 12.3 4.7 17 0l39.4-39.8z"/></symbol><symbol class="bksvg-inline--fa bkfa-times bkfa-w-11" viewBox="0 0 352 512" id="svg--times-solid" xmlns="http://www.w3.org/2000/svg"><path fill="currentColor" d="M242.72 256l100.07-100.07c12.28-12.28 12.28-32.19 0-44.48l-22.24-22.24c-12.28-12.28-32.19-12.28-44.48 0L176 189.28 75.93 89.21c-12.28-12.28-32.19-12.28-44.48 0L9.21 111.45c-12.28 12.28-12.28 32.19 0 44.48L109.28 256 9.21 356.07c-12.28 12.28-12.28 32.19 0 44.48l22.24 22.24c12.28 12.28 32.2 12.28 44.48 0L176 322.72l100.07 100.07c12.28 12.28 32.2 12.28 44.48 0l22.24-22.24c12.28-12.28 12.28-32.19 0-44.48L242.72 256z"/></symbol><symbol class="blsvg-inline--fa blfa-tractor blfa-w-20" viewBox="0 0 640 512" id="svg--tractor-solid" xmlns="http://www.w3.org/2000/svg"><path fill="currentColor" d="M528 336c-48.6 0-88 39.4-88 88s39.4 88 88 88 88-39.4 88-88-39.4-88-88-88zm0 112c-13.23 0-24-10.77-24-24s10.77-24 24-24 24 10.77 24 24-10.77 24-24 24zm80-288h-64v-40.2c0-14.12 4.7-27.76 13.15-38.84 4.42-5.8 3.55-14.06-1.32-19.49L534.2 37.3c-6.66-7.45-18.32-6.92-24.7.78C490.58 60.9 480 89.81 480 119.8V160H377.67L321.58 29.14A47.914 47.914 0 00277.45 0H144c-26.47 0-48 21.53-48 48v146.52c-8.63-6.73-20.96-6.46-28.89 1.47L36 227.1c-8.59 8.59-8.59 22.52 0 31.11l5.06 5.06c-4.99 9.26-8.96 18.82-11.91 28.72H22c-12.15 0-22 9.85-22 22v44c0 12.15 9.85 22 22 22h7.14c2.96 9.91 6.92 19.46 11.91 28.73l-5.06 5.06c-8.59 8.59-8.59 22.52 0 31.11L67.1 476c8.59 8.59 22.52 8.59 31.11 0l5.06-5.06c9.26 4.99 18.82 8.96 28.72 11.91V490c0 12.15 9.85 22 22 22h44c12.15 0 22-9.85 22-22v-7.14c9.9-2.95 19.46-6.92 28.72-11.91l5.06 5.06c8.59 8.59 22.52 8.59 31.11 0l31.11-31.11c8.59-8.59 8.59-22.52 0-31.11l-5.06-5.06c4.99-9.26 8.96-18.82 11.91-28.72H330c12.15 0 22-9.85 22-22v-6h80.54c21.91-28.99 56.32-48 95.46-48 18.64 0 36.07 4.61 51.8 12.2l50.82-50.82c6-6 9.37-14.14 9.37-22.63V192c.01-17.67-14.32-32-31.99-32zM176 416c-44.18 0-80-35.82-80-80s35.82-80 80-80 80 35.82 80 80-35.82 80-80 80zm22-256h-38V64h106.89l41.15 96H198z"/></symbol><symbol class="bmsvg-inline--fa bmfa-trash-alt bmfa-w-14" viewBox="0 0 448 512" id="svg--trash-alt-solid" xmlns="http://www.w3.org/2000/svg"><path fill="currentColor" d="M32 464a48 48 0 0048 48h288a48 48 0 0048-48V128H32zm272-256a16 16 0 0132 0v224a16 16 0 01-32 0zm-96 0a16 16 0 0132 0v224a16 16 0 01-32 0zm-96 0a16 16 0 0132 0v224a16 16 0 01-32 0zM432 32H312l-9.4-18.7A24 24 0 00281.1 0H166.8a23.72 23.72 0 00-21.4 13.3L136 32H16A16 16 0 000 48v32a16 16 0 0016 16h416a16 16 0 0016-16V48a16 16 0 00-16-16z"/></symbol><symbol viewBox="0 0 21 22" fill-rule="evenodd" clip-rule="evenodd" id="svg--trim-solid" xmlns="http://www.w3.org/2000/svg"><g fill-rule="nonzero"><path d="M6.501 12.501H1a.5.5 0 01-.5-.5V1A.5.5 0 011 .5h11.999a.5.5 0 01.5.5v7.501H8.001c-.827 0-1.5.673-1.5 1.5v2.5z" fill-opacity=".4"/><path d="M6.001 12.001v-2c0-1.103.897-2 2-2h4.998V1H1v11.001h5.001m1 1H1a1 1 0 01-1-1V1c0-.551.448-1 1-1h11.999c.552 0 1 .449 1 1v8.001H8.001c-.552 0-1 .449-1 1v3z"/></g><g fill="none"><path d="M21 9.001a1 1 0 00-1-1H7a1 1 0 00-1 1v11a1 1 0 001 1h13a1 1 0 001-1v-11z"/><path d="M20.5 9.001a.5.5 0 00-.5-.5H7a.5.5 0 00-.5.5v11a.5.5 0 00.5.5h13a.5.5 0 00.5-.5v-11z" stroke="#000"/></g></symbol><symbol class="bosvg-inline--fa bofa-user-circle bofa-w-16" viewBox="0 0 496 512" id="svg--user-circle-solid" xmlns="http://www.w3.org/2000/svg"><path fill="currentColor" d="M248 8C111 8 0 119 0 256s111 248 248 248 248-111 248-248S385 8 248 8zm0 96c48.6 0 88 39.4 88 88s-39.4 88-88 88-88-39.4-88-88 39.4-88 88-88zm0 344c-58.7 0-111.3-26.6-146.5-68.2 18.8-35.4 55.6-59.8 98.5-59.8 2.4 0 4.8.4 7.1 1.1 13 4.2 26.6 6.9 40.9 6.9 14.3 0 28-2.7 40.9-6.9 2.3-.7 4.7-1.1 7.1-1.1 42.9 0 79.7 24.4 98.5 59.8C359.3 421.4 306.7 448 248 448z"/></symbol><symbol class="bpsvg-inline--fa bpfa-vector-square bpfa-w-16" viewBox="0 0 512 512" id="svg--vector-square-solid" xmlns="http://www.w3.org/2000/svg"><path fill="currentColor" d="M512 128V32c0-17.67-14.33-32-32-32h-96c-17.67 0-32 14.33-32 32H160c0-17.67-14.33-32-32-32H32C14.33 0 0 14.33 0 32v96c0 17.67 14.33 32 32 32v192c-17.67 0-32 14.33-32 32v96c0 17.67 14.33 32 32 32h96c17.67 0 32-14.33 32-32h192c0 17.67 14.33 32 32 32h96c17.67 0 32-14.33 32-32v-96c0-17.67-14.33-32-32-32V160c17.67 0 32-14.33 32-32zm-96-64h32v32h-32V64zM64 64h32v32H64V64zm32 384H64v-32h32v32zm352 0h-32v-32h32v32zm-32-96h-32c-17.67 0-32 14.33-32 32v32H160v-32c0-17.67-14.33-32-32-32H96V160h32c17.67 0 32-14.33 32-32V96h192v32c0 17.67 14.33 32 32 32h32v192z"/></symbol></svg>